<?xml version="1.0" encoding="UTF-8"?>
<svg id="Camada_1" xmlns="http://www.w3.org/2000/svg" version="1.1" viewBox="0 0 1024 1024">
  <!-- Generator: Adobe Illustrator 29.6.1, SVG Export Plug-In . SVG Version: 2.1.1 Build 9)  -->
  <defs>
    <style>
      .st0 {
        fill: #fff;
      }
    </style>
  </defs>
  <path class="st0" d="M270.56,658.72c-5.88,3.08-12.68,6.51-17.83,10.43h410.47l-2.95-2.5-201.95-105.35c-62.57,32.46-125.31,64.67-187.74,97.42Z"/>
  <polygon class="st0" points="433.16 448.57 458.46 460.87 651.32 360.33 662.21 353.86 251.74 353.86 433.16 448.57"/>
  <path class="st0" d="M894.84,0H129.16C57.83,0,0,57.83,0,129.16v765.68c0,71.33,57.83,129.16,129.16,129.16h765.68c71.33,0,129.16-57.83,129.16-129.16V129.16c0-71.33-57.83-129.16-129.16-129.16ZM828.77,367.74l-272.66,143.28,272.66,143.75v100.63l-113.55-60.46c-2.01-.28-1.28.08-1.46,1.45-.41,3.08.31,6.71-.01,9.92-3.44,33.59-28.45,53.16-60.92,56.07l-399.58-.05c-30.07-2.38-55.69-22.51-59.01-53.52v-110.05l167.56-86.76-167.56-86.74c2.53-35.28-3.38-75.33,0-110.05,3.07-31.52,28.31-52.21,59-54.52l400.58-.05c31.67,2.95,56.07,22.7,59.82,55.19.38,3.26-.3,6.82.13,9.81.2,1.38-.56,1.7,1.5,1.49l113.51-59.51v100.14Z"/>
</svg>