<?xml version="1.0" encoding="UTF-8"?>
<svg id="Camada_1" xmlns="http://www.w3.org/2000/svg" version="1.1" viewBox="0 0 800 800">
  <!-- Generator: Adobe Illustrator 29.6.1, SVG Export Plug-In . SVG Version: 2.1.1 Build 9)  -->
  <defs>
    <style>
      .st0 {
        fill: #fff;
      }
    </style>
  </defs>
  <path class="st0" d="M435.15,391.88c-9.35,19.87-8.88,68.95-7.36,91.59,1.03,15.43,6.59,48.4,23.15,54.8,1.81.7,3.41-.04,5.02.32.75.17.61,1.77,1.36,1.95,2.02.49,14.32.42,16.77.1,1.85-.24,1.29-1.88,2.1-2.05,3.72-.8,6.08-.8,9.82-2.91,6.27-3.53,10.35-9.27,14.3-14.7l.08-126.01c-.45-3.23-5.79-10.56-8.41-12.92-18.12-16.38-46.41-12.3-56.84,9.84Z"/>
  <path class="st0" d="M699.09,0H100.91C45.18,0,0,45.18,0,100.91v598.19c0,55.73,45.18,100.91,100.91,100.91h598.19c55.73,0,100.91-45.18,100.91-100.91V100.91c0-55.73-45.18-100.91-100.91-100.91ZM303.63,596.2h-74.51c-.08,0,.17-1.11-.35-1.63-.52-.52-1.63-.27-1.63-.35V219.66h76.5v376.55ZM572.87,596.2h-65.57c-.8-6.45-2.14-12.95-2.96-19.39-.56-4.4,1.54-11.7-3.93-4.66-14.5,18.64-30.41,28.96-55.16,29.06-59.29.24-81.71-47.77-87.99-99.88-6.4-53.08-6.85-156.35,49.55-182.18,24.27-11.11,58.29-11.59,80.16,6.21,4.66,3.79,7.88,9.99,13.37,11.53v-138.1h72.53v397.41Z"/>
</svg>